@startuml
skinparam Shadowing false
skinparam LineType ortho
skinparam ArrowColor black

skinparam class {
    BackgroundColor WhiteSmoke
    BorderColor black
}

enum primitive_type
{
	LINE
	QUAD
}

class render_primitive {
	+render_bounds bounds
	+primitive_type type
	+render_color color
	+render_texinfo texture
	+render_quad_texuv texcoords
}

class osd_renderer {
    -osd_window  m_window
    +osd_window assert_window()
    {abstract} +int create()
    {abstract} +render_primitive[] get_primitives()
    {abstract} +int draw(const int update)
    {static} +osd_renderer make_for_type(int mode, osd_window window, int extra_flags)
}

class osd_window {
    +HDC m_dc
    +render_primitive[] m_primlist
    +osd_renderer renderer()        
    {abstract} +render_target target()    
    {abstract} +running_machine machine()
    {abstract} +void update()    
}

entity SDL
entity DirectX
entity OpenGL

renderer_ogl -u-|> osd_renderer
renderer_ogl -l- OpenGL
renderer_d3d9 -u-|> osd_renderer
renderer_d3d9 -l- DirectX
renderer_sdl2 -u-|> osd_renderer
renderer_sdl2 -l- SDL

osd_renderer -u- osd_window
osd_window -l- render_primitive
render_primitive -d- primitive_type
@enduml