@startuml
skinparam Shadowing false
skinparam LineType ortho
skinparam ArrowColor black
skinparam nodesep 15
skinparam ranksep 30

skinparam class {
    BackgroundColor WhiteSmoke
    BorderColor black
}


entity X11
entity Win32
entity DirectX
	
package SDL {
	class SDL_Joystick
	class SDL_Event		
}

class input_module {
	{abstract} +void input_init()
	{abstract} +void pause()
	{abstract} +void resume()
	{abstract} +void poll_if_necessary()
}

class input_module_base {
	-bool input_enabled
	-bool input_paused
	-bool mouse_enabled
	-bool lightgun_enabled
	-time last_poll
	-device_info[] devicelist
	
	+device_info[] devicelist()	
	+void poll()	
}

input_module_base --|> input_module

wininput_module --|> input_module_base

dinput_module --|> wininput_module

peripheral_input_dinput --|> dinput_module

sdl_peripheral_module -- SDL_Joystick
sdl_input_module -- SDL_Event

sdl_input_module -r-|> input_module_base

sdl_peripheral_module --|> sdl_input_module

peripheral_input_win32 --|> wininput_module

xinput_peripheral_module --|> wininput_module


xinput_peripheral_module -u- X11
peripheral_input_win32 -u- Win32
peripheral_input_dinput -u- DirectX
@enduml
